<svg id="Layer_1" data-name="Layer 1" xmlns="http://www.w3.org/2000/svg" viewBox="0 0 316.17 365.08"><defs><style>.cls-1{fill:#cc2749;fill-rule:evenodd;}</style></defs><polygon class="cls-1" points="221.31 328.57 252.93 310.32 284.55 292.06 316.17 273.81 316.17 237.3 316.17 214.16 284.55 214.16 284.55 255.56 252.94 273.81 221.32 292.06 189.7 310.32 158.09 328.57 126.47 310.32 94.85 292.06 63.23 273.81 31.62 255.56 31.62 219.05 31.62 182.54 31.62 146.03 31.61 109.53 63.23 91.27 63.23 127.78 63.23 164.29 63.23 200.79 63.23 237.3 94.85 255.56 126.47 273.81 158.08 292.07 189.7 273.81 221.31 255.56 252.94 237.3 252.94 200.79 252.94 164.29 252.94 127.78 221.32 109.52 189.7 91.27 158.08 73.02 158.08 36.51 189.7 54.76 221.32 73.02 252.94 91.27 284.55 109.52 284.56 146.03 284.56 150.92 316.17 150.92 316.17 127.78 316.17 91.27 284.55 73.02 252.94 54.76 221.32 36.51 189.7 18.25 158.08 0 126.47 18.25 126.47 54.76 126.47 91.27 126.47 127.78 126.47 164.29 126.47 200.79 158.08 219.05 189.7 200.79 189.7 164.29 158.08 146.03 158.08 109.52 189.7 127.78 221.32 146.03 221.32 182.54 221.32 219.05 189.7 237.3 158.08 255.56 126.47 237.3 94.85 219.05 94.85 182.54 94.85 146.03 94.85 109.52 94.85 73.02 94.85 36.51 63.23 54.76 31.61 73.02 0 91.27 0 127.78 0 164.29 0 200.79 0 237.3 0 273.81 31.62 292.06 63.23 310.32 94.85 328.57 126.47 346.83 158.08 365.08 189.7 346.83 221.31 328.57"/></svg>