<?xml version="1.0" encoding="utf-8"?>
<!-- Generator: Adobe Illustrator 26.0.1, SVG Export Plug-In . SVG Version: 6.00 Build 0)  -->
<svg version="1.1" id="Layer_1" xmlns="http://www.w3.org/2000/svg" xmlns:xlink="http://www.w3.org/1999/xlink" x="0px" y="0px"
	 viewBox="0 0 500 500" style="enable-background:new 0 0 500 500;" xml:space="preserve">
<style type="text/css">
	.st0{fill:#0C84C6;}
	.st1{fill:#E22433;}
	.st2{fill:#29CC5F;}
	.st3{fill:#E239CA;}
	.st4{fill:#005A97;}
</style>
<path class="st0" d="M190.8,221.6c0-17.8,0-35.6,0-54c-11.1,0-22.1,0-34.7,0c28.8-60.8,73.8-101.4,137.9-117.7
	c75.7-19.2,142.2,0.2,199.2,52.7c-22.7,22.7-44.7,44.7-66.6,66.6c-7.7-5.5-15.1-11.8-23.5-16.6c-62.6-36.2-142.3-5-163.9,63.9
	c-1.4,4.5-3.1,6-7.9,5.9c-11.4-0.4-22.7-0.1-34.1-0.2c-2.2,0-4.3-0.5-6.5-0.8L190.8,221.6z M214.5,167c8.2,0,15.8,0,23.5,0
	c0-8,0-15.6,0-23.5c-8,0-15.6,0-23.5,0C214.5,151.5,214.5,159,214.5,167z"/>
<path class="st0" d="M191.1,332.9c-0.1-18.1-0.3-36.1-0.4-54.2c0,0-0.1,0.1-0.1,0.1c8.3-0.3,16.5-0.7,24.8-0.9
	c6.9-0.1,15.2-2.3,20.3,0.8c4.5,2.7,5.4,11.4,8.1,17.4c31,69.4,121.2,88.8,177.9,38.3c1.5-1.3,3-2.6,4.1-3.6
	c22.2,22.3,44.3,44.3,67,67c-51,48-111.9,68.4-181.8,56.3c-72.1-12.5-122.6-54.5-155-121.2c12.7,0,24,0,35.2,0c0,7.8,0,15.7,0,23.8
	c8.1,0,15.7,0,23.5,0c0-8.1,0-15.8,0-23.7C206.5,332.9,198.8,332.9,191.1,332.9z"/>
<path class="st1" d="M108.3,200c-7.3,0-14.6-0.1-21.9,0.1c-3.7,0.1-5-1.3-5-4.9c0.1-14.6,0.1-29.2,0-43.8c0-3.7,1.5-5,5.1-5
	c14.6,0.1,29.2,0.1,43.8,0c3.7,0,4.9,1.5,4.9,5.1c-0.1,14.6-0.1,29.2,0,43.8c0,3.7-1.3,5-5,4.9C122.9,199.8,115.6,200,108.3,200z"/>
<path class="st2" d="M190.7,221.4c0,19.1,0,38.2-0.1,57.3c0,0,0.1-0.1,0.1-0.1c-2.1-0.3-4.2-1-6.3-1c-14.2-0.1-28.4,0-43.9,0
	c0-18.3,0-36.2,0-55c5.9,0,10.9,0.1,15.8,0c11.5-0.2,23-0.6,34.5-0.9C190.8,221.6,190.7,221.4,190.7,221.4z"/>
<path class="st3" d="M91.8,277.9c0,10.1,0,19.8,0,29.9c-10.1,0-19.9,0-30.3,0c0-9.8,0-19.6,0-29.9C71.7,277.9,81.7,277.9,91.8,277.9
	z"/>
<path class="st4" d="M273.1,276.5c-8.6,0-17.1,0-26,0c0-8.7,0-17,0-25.8c8.6,0,17,0,26,0C273.1,259,273.1,267.3,273.1,276.5z"/>
<path class="st4" d="M6.8,264.1c0-7.4,0-14.4,0-22.2c6.7,0,13.1-0.1,19.5,0.1c1,0,2.8,1.9,2.8,2.9c0.3,6.2,0.1,12.5,0.1,19.1
	C21.6,264.1,14.5,264.1,6.8,264.1z"/>
</svg>
